<svg id="visual" viewBox="0 0 1920 1080" width="1920" height="1080" xmlns="http://www.w3.org/2000/svg" xmlns:xlink="http://www.w3.org/1999/xlink" version="1.1"><rect x="0" y="0" width="1920" height="1080" fill="#061529"></rect><path d="M0 710L175 721L349 785L524 608L698 699L873 785L1047 756L1222 612L1396 782L1571 684L1745 626L1920 692L1920 1081L1745 1081L1571 1081L1396 1081L1222 1081L1047 1081L873 1081L698 1081L524 1081L349 1081L175 1081L0 1081Z" fill="#0b2241"></path><path d="M0 733L175 717L349 792L524 788L698 690L873 761L1047 669L1222 804L1396 691L1571 664L1745 746L1920 666L1920 1081L1745 1081L1571 1081L1396 1081L1222 1081L1047 1081L873 1081L698 1081L524 1081L349 1081L175 1081L0 1081Z" fill="#0d3150"></path><path d="M0 698L175 799L349 743L524 741L698 839L873 812L1047 783L1222 761L1396 756L1571 799L1745 751L1920 824L1920 1081L1745 1081L1571 1081L1396 1081L1222 1081L1047 1081L873 1081L698 1081L524 1081L349 1081L175 1081L0 1081Z" fill="#0f405f"></path><path d="M0 849L175 747L349 838L524 828L698 806L873 764L1047 747L1222 872L1396 857L1571 820L1745 751L1920 770L1920 1081L1745 1081L1571 1081L1396 1081L1222 1081L1047 1081L873 1081L698 1081L524 1081L349 1081L175 1081L0 1081Z" fill="#134f6d"></path><path d="M0 847L175 853L349 877L524 791L698 856L873 814L1047 860L1222 837L1396 818L1571 835L1745 836L1920 775L1920 1081L1745 1081L1571 1081L1396 1081L1222 1081L1047 1081L873 1081L698 1081L524 1081L349 1081L175 1081L0 1081Z" fill="#1a5f7a"></path><path d="M0 847L175 906L349 845L524 876L698 844L873 858L1047 808L1222 899L1396 873L1571 830L1745 806L1920 875L1920 1081L1745 1081L1571 1081L1396 1081L1222 1081L1047 1081L873 1081L698 1081L524 1081L349 1081L175 1081L0 1081Z" fill="#1a5f7a"></path><path d="M0 892L175 896L349 870L524 874L698 944L873 908L1047 894L1222 899L1396 897L1571 895L1745 845L1920 925L1920 1081L1745 1081L1571 1081L1396 1081L1222 1081L1047 1081L873 1081L698 1081L524 1081L349 1081L175 1081L0 1081Z" fill="#1a5f7a"></path><path d="M0 888L175 939L349 936L524 950L698 952L873 889L1047 944L1222 960L1396 965L1571 894L1745 915L1920 972L1920 1081L1745 1081L1571 1081L1396 1081L1222 1081L1047 1081L873 1081L698 1081L524 1081L349 1081L175 1081L0 1081Z" fill="#134f6d"></path><path d="M0 949L175 940L349 989L524 969L698 975L873 1007L1047 961L1222 1004L1396 937L1571 942L1745 968L1920 998L1920 1081L1745 1081L1571 1081L1396 1081L1222 1081L1047 1081L873 1081L698 1081L524 1081L349 1081L175 1081L0 1081Z" fill="#0f405f"></path><path d="M0 987L175 1033L349 974L524 1033L698 973L873 1025L1047 993L1222 1021L1396 1020L1571 1011L1745 972L1920 1023L1920 1081L1745 1081L1571 1081L1396 1081L1222 1081L1047 1081L873 1081L698 1081L524 1081L349 1081L175 1081L0 1081Z" fill="#0d3150"></path><path d="M0 1015L175 1013L349 1012L524 1038L698 1042L873 1008L1047 1045L1222 1051L1396 1052L1571 1023L1745 1044L1920 1039L1920 1081L1745 1081L1571 1081L1396 1081L1222 1081L1047 1081L873 1081L698 1081L524 1081L349 1081L175 1081L0 1081Z" fill="#0b2241"></path></svg>