<svg id="visual" viewBox="0 0 900 600" width="900" height="600" xmlns="http://www.w3.org/2000/svg" xmlns:xlink="http://www.w3.org/1999/xlink" version="1.1"><rect x="0" y="0" width="900" height="600" fill="#061529"></rect><path d="M0 371L69 384L138 353L208 358L277 385L346 433L415 424L485 396L554 408L623 392L692 397L762 398L831 376L900 347L900 601L831 601L762 601L692 601L623 601L554 601L485 601L415 601L346 601L277 601L208 601L138 601L69 601L0 601Z" fill="#0b2241"></path><path d="M0 391L69 401L138 385L208 383L277 427L346 457L415 409L485 459L554 435L623 382L692 399L762 437L831 431L900 404L900 601L831 601L762 601L692 601L623 601L554 601L485 601L415 601L346 601L277 601L208 601L138 601L69 601L0 601Z" fill="#0e3b5a"></path><path d="M0 457L69 481L138 431L208 451L277 424L346 432L415 449L485 445L554 424L623 465L692 416L762 430L831 459L900 483L900 601L831 601L762 601L692 601L623 601L554 601L485 601L415 601L346 601L277 601L208 601L138 601L69 601L0 601Z" fill="#155471"></path><path d="M0 488L69 453L138 495L208 454L277 508L346 479L415 468L485 446L554 458L623 485L692 450L762 489L831 459L900 465L900 601L831 601L762 601L692 601L623 601L554 601L485 601L415 601L346 601L277 601L208 601L138 601L69 601L0 601Z" fill="#1a5f7a"></path><path d="M0 495L69 531L138 488L208 499L277 481L346 508L415 488L485 489L554 504L623 521L692 513L762 493L831 494L900 529L900 601L831 601L762 601L692 601L623 601L554 601L485 601L415 601L346 601L277 601L208 601L138 601L69 601L0 601Z" fill="#155471"></path><path d="M0 532L69 543L138 539L208 522L277 554L346 510L415 544L485 556L554 516L623 515L692 528L762 551L831 523L900 548L900 601L831 601L762 601L692 601L623 601L554 601L485 601L415 601L346 601L277 601L208 601L138 601L69 601L0 601Z" fill="#0e3b5a"></path><path d="M0 558L69 578L138 574L208 561L277 565L346 562L415 560L485 563L554 569L623 580L692 557L762 551L831 579L900 568L900 601L831 601L762 601L692 601L623 601L554 601L485 601L415 601L346 601L277 601L208 601L138 601L69 601L0 601Z" fill="#0b2241"></path></svg>